# xmcd
#
# Track frame offsets: 
#        150
#        22953
#        43730
#        61313
#        82988
#        102728
#        124868
#        141010
#        154788
#        174006
#        191013
#        206358
#        217308
#        239673
#
# Disc length: 3360 seconds
#
# Revision: 0
# Processed by: cddbd v1.5.2PL0 Copyright (c) Steve Scherf et al.
# Submitted via: ExactAudioCopy v0.99pb4
#
DISCID=c60d1e0e
DTITLE=Black Milk - Tronic
DYEAR=2008
DGENRE=Hip-Hop/Rap
TTITLE0=Long Story Short
TTITLE1=Bounce
TTITLE2=Give The Drummer Sum
TTITLE3=Without You (feat. Colin Munroe)
TTITLE4=Hold It Down
TTITLE5=Losing Out (feat. Royce da 5'9'')
TTITLE6=Hell Yeah (feat. Fat Ray)
TTITLE7=Overdose
TTITLE8=Reppin For You (feat. AB)
TTITLE9=The Matrix (feat. Pharoahe Monch, Sean Price, and DJ Premier)
TTITLE10=Try
TTITLE11=Tronic Summer
TTITLE12=Bond 4 Life (feat. Melanie Rutherford)
TTITLE13=Elec (Outro)
EXTD=
EXTT0=
EXTT1=
EXTT2=
EXTT3=
EXTT4=
EXTT5=
EXTT6=
EXTT7=
EXTT8=
EXTT9=
EXTT10=
EXTT11=
EXTT12=
EXTT13=
PLAYORDER=
